# xmcd CD database file
#
# Track frame offsets:
#	150
#	22205
#	49108
#
# Disc length: 940 seconds
#
# Revision: 0
# Processed by: cddbd v1.5PL3 Copyright (c) Steve Scherf et al.
# Submitted via: CDex 1.51
#
DISCID=2203aa03
DTITLE=濱田マリ - It's My Love/氣愛(Ki-Ai)
DYEAR=1997
DGENRE=Japanese Pop
TTITLE0=It's My Love
TTITLE1=氣愛(Ki-Ai)
TTITLE2=The Sensation Of Orgasm
EXTD=YEAR: 1997
EXTT0=
EXTT1=
EXTT2=
PLAYORDER=
